<svg width="24" height="24" viewBox="0 0 24 24" fill="none" xmlns="http://www.w3.org/2000/svg">
<path d="M17 14.25C16.5625 14.25 16.25 14.5938 16.25 15C16.25 15.4375 16.5625 15.75 17 15.75C17.4062 15.75 17.75 15.4375 17.75 15C17.75 14.5938 17.4062 14.25 17 14.25ZM20 10H15.7188V10.0312C15.625 9.84375 15.5312 9.6875 15.375 9.5625L10.4375 4.625C10.0312 4.21875 9.5 4 9 4C8.46875 4 7.9375 4.21875 7.53125 4.625L2.59375 9.5625C1.78125 10.375 1.78125 11.6562 2.59375 12.4688L7.53125 17.4062C7.9375 17.8125 8.46875 18 9 18C9.5 18 10.0312 17.8125 10.4375 17.4062L12 15.875V18C12 19.125 12.875 20 14 20H20C21.0938 20 22 19.125 22 18V12C22 10.9062 21.0938 10 20 10ZM9.34375 16.3125C9.21875 16.4688 9.0625 16.4688 9 16.4688C8.90625 16.4688 8.75 16.4688 8.625 16.3125L3.6875 11.375C3.46875 11.1875 3.46875 10.8438 3.6875 10.6562L8.625 5.71875C8.75 5.5625 8.90625 5.5625 9 5.5625C9.0625 5.5625 9.21875 5.5625 9.34375 5.71875L14.2812 10.6562C14.5 10.8438 14.5 11.1875 14.2812 11.375L9.34375 16.3125ZM20.5 18C20.5 18.2812 20.25 18.5 20 18.5H14C13.7188 18.5 13.5 18.2812 13.5 18V14.375L15.375 12.4688C15.6562 12.1875 15.8125 11.875 15.9062 11.5H20C20.25 11.5 20.5 11.75 20.5 12V18ZM9 10.25C8.5625 10.25 8.25 10.5938 8.25 11C8.25 11.4375 8.5625 11.75 9 11.75C9.40625 11.75 9.75 11.4375 9.75 11C9.75 10.5938 9.40625 10.25 9 10.25ZM12 10.25C11.5625 10.25 11.25 10.5938 11.25 11C11.25 11.4375 11.5625 11.75 12 11.75C12.4062 11.75 12.75 11.4375 12.75 11C12.75 10.5938 12.4062 10.25 12 10.25ZM6 10.25C5.5625 10.25 5.25 10.5938 5.25 11C5.25 11.4375 5.5625 11.75 6 11.75C6.40625 11.75 6.75 11.4375 6.75 11C6.75 10.5938 6.40625 10.25 6 10.25ZM9 13.25C8.5625 13.25 8.25 13.5938 8.25 14C8.25 14.4375 8.5625 14.75 9 14.75C9.40625 14.75 9.75 14.4375 9.75 14C9.75 13.5938 9.40625 13.25 9 13.25ZM9 7.25C8.5625 7.25 8.25 7.59375 8.25 8C8.25 8.4375 8.5625 8.75 9 8.75C9.40625 8.75 9.75 8.4375 9.75 8C9.75 7.59375 9.40625 7.25 9 7.25Z" fill="#333333"/>
</svg>
