<svg width="14" height="14" viewBox="0 0 14 14" fill="none" xmlns="http://www.w3.org/2000/svg">
<path d="M12 0H2C0.875 0 0 0.90625 0 2V12C0 13.125 0.875 14 2 14H12C13.0938 14 14 13.125 14 12V2C14 0.90625 13.0938 0 12 0ZM12.5 12C12.5 12.2812 12.25 12.5 12 12.5H2C1.71875 12.5 1.5 12.2812 1.5 12V2C1.5 1.75 1.71875 1.5 2 1.5H12C12.25 1.5 12.5 1.75 12.5 2V12ZM4 3C3.4375 3 3 3.46875 3 4C3 4.5625 3.4375 5 4 5C4.53125 5 5 4.5625 5 4C5 3.46875 4.53125 3 4 3ZM7 6C6.4375 6 6 6.46875 6 7C6 7.5625 6.4375 8 7 8C7.53125 8 8 7.5625 8 7C8 6.46875 7.53125 6 7 6ZM4 9C3.4375 9 3 9.46875 3 10C3 10.5625 3.4375 11 4 11C4.53125 11 5 10.5625 5 10C5 9.46875 4.53125 9 4 9ZM10 3C9.4375 3 9 3.46875 9 4C9 4.5625 9.4375 5 10 5C10.5312 5 11 4.5625 11 4C11 3.46875 10.5312 3 10 3ZM10 9C9.4375 9 9 9.46875 9 10C9 10.5625 9.4375 11 10 11C10.5312 11 11 10.5625 11 10C11 9.46875 10.5312 9 10 9Z" fill="#333333"/>
</svg>
